<svg xmlns="http://www.w3.org/2000/svg" xmlns:xlink="http://www.w3.org/1999/xlink" width="1080" zoomAndPan="magnify" viewBox="0 0 810 809.999993" height="1080" preserveAspectRatio="xMidYMid meet" version="1.0"><defs><clipPath id="2030bc4e00"><path d="M 307 156.761719 L 352 156.761719 L 352 352 L 307 352 Z M 307 156.761719 " clip-rule="nonzero"/></clipPath><clipPath id="e8220759e1"><path d="M 264.691406 199 L 545.191406 199 L 545.191406 653.261719 L 264.691406 653.261719 Z M 264.691406 199 " clip-rule="nonzero"/></clipPath></defs><rect x="-81" width="972" fill="#ffffff" y="-80.999999" height="971.999992" fill-opacity="1"/><rect x="-81" width="972" fill="#000000" y="-80.999999" height="971.999992" fill-opacity="1"/><path fill="#c60000" d="M 480.550781 329.449219 C 480.550781 357.367188 480.550781 381.902344 480.550781 394.207031 L 437.378906 394.207031 L 437.378906 307.863281 L 480.550781 307.863281 C 480.550781 315.203125 480.550781 322.398438 480.550781 329.449219 Z M 480.550781 329.449219 " fill-opacity="1" fill-rule="nonzero"/><path fill="#c60000" d="M 415.792969 329.449219 L 415.792969 394.207031 L 394.207031 394.207031 C 394.207031 386.074219 394.207031 378.015625 394.207031 372.621094 L 372.621094 372.621094 L 372.621094 307.863281 L 415.792969 307.863281 Z M 415.792969 329.449219 " fill-opacity="1" fill-rule="nonzero"/><g clip-path="url(#2030bc4e00)"><path fill="#c60000" d="M 351.035156 329.449219 C 351.035156 337.578125 351.035156 345.636719 351.035156 351.035156 C 340.242188 351.035156 318.65625 351.035156 307.863281 351.035156 L 307.863281 156.761719 C 318.65625 156.761719 340.242188 156.761719 351.035156 156.761719 C 351.035156 162.15625 351.035156 321.316406 351.035156 329.449219 Z M 351.035156 329.449219 " fill-opacity="1" fill-rule="nonzero"/></g><g clip-path="url(#e8220759e1)"><path fill="#c60000" d="M 545.308594 545.308594 C 545.308594 572.363281 545.308594 604.597656 545.308594 631.652344 L 523.722656 631.652344 L 523.722656 653.238281 L 320.957031 653.238281 L 320.957031 631.652344 L 307.863281 631.652344 C 307.863281 604.597656 307.863281 572.363281 307.863281 545.308594 L 329.449219 545.308594 L 329.449219 566.894531 L 372.621094 566.894531 L 372.621094 545.308594 C 361.828125 545.308594 340.242188 545.308594 329.449219 545.308594 L 329.449219 523.722656 C 324.050781 523.722656 315.992188 523.722656 307.863281 523.722656 C 299.730469 523.722656 291.671875 523.722656 286.277344 523.722656 L 286.277344 502.136719 L 264.691406 502.136719 C 264.691406 467.527344 264.691406 428.816406 264.691406 394.207031 L 286.277344 394.207031 L 286.277344 372.621094 L 307.863281 372.621094 C 336.5 372.621094 345.0625 372.621094 372.621094 372.621094 C 372.621094 378.015625 372.621094 386.074219 372.621094 394.207031 L 372.621094 415.792969 C 361.828125 415.792969 329.449219 415.792969 329.449219 415.792969 L 329.449219 437.378906 L 307.863281 437.378906 L 307.863281 458.964844 L 329.449219 458.964844 L 329.449219 437.378906 C 348.660156 437.378906 353.410156 437.378906 372.621094 437.378906 L 372.621094 415.792969 L 415.792969 415.792969 L 415.792969 394.207031 L 437.378906 394.207031 L 437.378906 415.792969 L 480.550781 415.792969 L 480.550781 394.207031 L 502.136719 394.207031 C 502.136719 384.203125 502.136719 358.878906 502.136719 329.449219 C 502.136719 279.296875 502.136719 217.273438 502.136719 199.933594 C 512.929688 199.933594 534.515625 199.933594 545.308594 199.933594 C 545.308594 299.589844 545.308594 424.28125 545.308594 523.722656 L 523.722656 523.722656 L 523.722656 545.308594 C 512.929688 545.308594 448.171875 545.308594 437.378906 545.308594 L 437.378906 566.894531 C 464.433594 566.894531 496.667969 566.894531 523.722656 566.894531 L 523.722656 545.308594 Z M 545.308594 545.308594 " fill-opacity="1" fill-rule="nonzero"/></g></svg>